<svg xmlns="http://www.w3.org/2000/svg" width="600" height="400" viewBox="0 0 600 400">
  <defs>
    <radialGradient id="g1" cx="50%" cy="50%" r="50%">
      <stop offset="0%" stop-color="#ef4444" stop-opacity="0.35"/>
      <stop offset="100%" stop-color="#ef4444" stop-opacity="0"/>
    </radialGradient>
    <radialGradient id="g2" cx="50%" cy="50%" r="50%">
      <stop offset="0%" stop-color="#0066ff" stop-opacity="0.28"/>
      <stop offset="100%" stop-color="#0066ff" stop-opacity="0"/>
    </radialGradient>
    <linearGradient id="fade" x1="0" y1="0" x2="0" y2="1">
      <stop offset="0%" stop-color="#101b33" stop-opacity="0"/>
      <stop offset="100%" stop-color="#101b33" stop-opacity="0.85"/>
    </linearGradient>
    <pattern id="grid" width="40" height="40" patternUnits="userSpaceOnUse">
      <path d="M 40 0 L 0 0 0 40" fill="none" stroke="#ef4444" stroke-opacity="0.07" stroke-width="1"/>
    </pattern>
  </defs>
  <rect width="600" height="400" fill="#101b33"/>
  <rect width="600" height="400" fill="url(#grid)"/>
  <ellipse cx="491.99999999999994" cy="80" rx="228" ry="220.00000000000003" fill="url(#g1)"/>
  <ellipse cx="90" cy="340" rx="210" ry="200" fill="url(#g2)"/><ellipse cx="300" cy="200" rx="168.00000000000003" ry="78.4" fill="none" stroke="#ef4444" stroke-opacity="0.5" stroke-width="1.5" transform="rotate(-18 300 200)"/><ellipse cx="300" cy="200" rx="240" ry="112" fill="none" stroke="#0066ff" stroke-opacity="0.38" stroke-width="1.5" transform="rotate(-4 300 200)"/><ellipse cx="300" cy="200" rx="312" ry="145.6" fill="none" stroke="#ef4444" stroke-opacity="0.26" stroke-width="1.5" transform="rotate(10 300 200)"/><circle cx="490" cy="248" r="6" fill="#0066ff" fill-opacity="0.9"/><circle cx="260" cy="299" r="6" fill="#ef4444" fill-opacity="0.9"/><circle cx="86" cy="213" r="6" fill="#0066ff" fill-opacity="0.9"/><circle cx="208" cy="109" r="6" fill="#ef4444" fill-opacity="0.9"/><circle cx="457" cy="131" r="6" fill="#0066ff" fill-opacity="0.9"/><circle cx="300" cy="200" r="14" fill="#1a2947" stroke="#ef4444" stroke-width="2.5"/><rect width="600" height="400" fill="url(#fade)" style="mix-blend-mode:multiply"/></svg>