<svg xmlns="http://www.w3.org/2000/svg" width="800" height="400" viewBox="0 0 800 400">
  <defs>
    <radialGradient id="g1" cx="50%" cy="50%" r="50%">
      <stop offset="0%" stop-color="#f59e0b" stop-opacity="0.35"/>
      <stop offset="100%" stop-color="#f59e0b" stop-opacity="0"/>
    </radialGradient>
    <radialGradient id="g2" cx="50%" cy="50%" r="50%">
      <stop offset="0%" stop-color="#ef4444" stop-opacity="0.28"/>
      <stop offset="100%" stop-color="#ef4444" stop-opacity="0"/>
    </radialGradient>
    <linearGradient id="fade" x1="0" y1="0" x2="0" y2="1">
      <stop offset="0%" stop-color="#101b33" stop-opacity="0"/>
      <stop offset="100%" stop-color="#101b33" stop-opacity="0.85"/>
    </linearGradient>
    <pattern id="grid" width="40" height="40" patternUnits="userSpaceOnUse">
      <path d="M 40 0 L 0 0 0 40" fill="none" stroke="#f59e0b" stroke-opacity="0.07" stroke-width="1"/>
    </pattern>
  </defs>
  <rect width="800" height="400" fill="#101b33"/>
  <rect width="800" height="400" fill="url(#grid)"/>
  <ellipse cx="656" cy="80" rx="304" ry="220.00000000000003" fill="url(#g1)"/>
  <ellipse cx="120" cy="340" rx="280" ry="200" fill="url(#g2)"/><rect x="122" y="130" width="66" height="44" rx="3" fill="#ef4444" fill-opacity="0.34"/><rect x="122" y="178" width="66" height="44" rx="3" fill="#ef4444" fill-opacity="0.50"/><rect x="122" y="226" width="66" height="44" rx="3" fill="#f59e0b" fill-opacity="0.64"/><rect x="122" y="274" width="66" height="44" rx="3" fill="#f59e0b" fill-opacity="0.56"/><rect x="192" y="130" width="66" height="44" rx="3" fill="#f59e0b" fill-opacity="0.61"/><rect x="192" y="226" width="66" height="44" rx="3" fill="#f59e0b" fill-opacity="0.45"/><rect x="192" y="274" width="66" height="44" rx="3" fill="#f59e0b" fill-opacity="0.23"/><rect x="262" y="82" width="66" height="44" rx="3" fill="#f59e0b" fill-opacity="0.60"/><rect x="262" y="130" width="66" height="44" rx="3" fill="#f59e0b" fill-opacity="0.74"/><rect x="262" y="178" width="66" height="44" rx="3" fill="#f59e0b" fill-opacity="0.37"/><rect x="332" y="130" width="66" height="44" rx="3" fill="#f59e0b" fill-opacity="0.34"/><rect x="332" y="178" width="66" height="44" rx="3" fill="#f59e0b" fill-opacity="0.62"/><rect x="402" y="82" width="66" height="44" rx="3" fill="#ef4444" fill-opacity="0.48"/><rect x="402" y="178" width="66" height="44" rx="3" fill="#ef4444" fill-opacity="0.19"/><rect x="402" y="274" width="66" height="44" rx="3" fill="#f59e0b" fill-opacity="0.75"/><rect x="472" y="130" width="66" height="44" rx="3" fill="#ef4444" fill-opacity="0.33"/><rect x="472" y="178" width="66" height="44" rx="3" fill="#f59e0b" fill-opacity="0.37"/><rect x="472" y="226" width="66" height="44" rx="3" fill="#f59e0b" fill-opacity="0.30"/><rect x="472" y="274" width="66" height="44" rx="3" fill="#f59e0b" fill-opacity="0.71"/><rect x="542" y="82" width="66" height="44" rx="3" fill="#f59e0b" fill-opacity="0.49"/><rect x="542" y="130" width="66" height="44" rx="3" fill="#ef4444" fill-opacity="0.76"/><rect x="542" y="178" width="66" height="44" rx="3" fill="#f59e0b" fill-opacity="0.31"/><rect x="542" y="226" width="66" height="44" rx="3" fill="#ef4444" fill-opacity="0.36"/><rect x="542" y="274" width="66" height="44" rx="3" fill="#ef4444" fill-opacity="0.72"/><rect x="612" y="82" width="66" height="44" rx="3" fill="#ef4444" fill-opacity="0.20"/><rect x="612" y="226" width="66" height="44" rx="3" fill="#f59e0b" fill-opacity="0.29"/><rect width="800" height="400" fill="url(#fade)" style="mix-blend-mode:multiply"/></svg>