<svg xmlns="http://www.w3.org/2000/svg" width="800" height="400" viewBox="0 0 800 400" role="img" aria-labelledby="t"><title id="t">NLP document classifier with DistilBERT</title>
  <defs>
    <radialGradient id="g1" cx="50%" cy="50%" r="50%">
      <stop offset="0%" stop-color="#8b5cf6" stop-opacity="0.35"/>
      <stop offset="100%" stop-color="#8b5cf6" stop-opacity="0"/>
    </radialGradient>
    <radialGradient id="g2" cx="50%" cy="50%" r="50%">
      <stop offset="0%" stop-color="#00d4b8" stop-opacity="0.28"/>
      <stop offset="100%" stop-color="#00d4b8" stop-opacity="0"/>
    </radialGradient>
    <linearGradient id="fade" x1="0" y1="0" x2="0" y2="1">
      <stop offset="0%" stop-color="#101b33" stop-opacity="0"/>
      <stop offset="100%" stop-color="#101b33" stop-opacity="0.85"/>
    </linearGradient>
    <pattern id="grid" width="40" height="40" patternUnits="userSpaceOnUse">
      <path d="M 40 0 L 0 0 0 40" fill="none" stroke="#8b5cf6" stroke-opacity="0.07" stroke-width="1"/>
    </pattern>
  </defs>
  <rect width="800" height="400" fill="#101b33"/>
  <rect width="800" height="400" fill="url(#grid)"/>
  <ellipse cx="656" cy="80" rx="304" ry="220.00000000000003" fill="url(#g1)"/>
  <ellipse cx="120" cy="340" rx="280" ry="200" fill="url(#g2)"/><line x1="40" y1="271" x2="149" y2="365" stroke="#8b5cf6" stroke-opacity="0.20" stroke-width="1"/><line x1="40" y1="271" x2="40" y2="319" stroke="#8b5cf6" stroke-opacity="0.33" stroke-width="1"/><line x1="40" y1="271" x2="201" y2="313" stroke="#8b5cf6" stroke-opacity="0.17" stroke-width="1"/><line x1="733" y1="345" x2="618" y2="183" stroke="#8b5cf6" stroke-opacity="0.12" stroke-width="1"/><line x1="733" y1="345" x2="678" y2="276" stroke="#8b5cf6" stroke-opacity="0.28" stroke-width="1"/><line x1="733" y1="345" x2="749" y2="325" stroke="#8b5cf6" stroke-opacity="0.37" stroke-width="1"/><line x1="733" y1="345" x2="708" y2="253" stroke="#8b5cf6" stroke-opacity="0.27" stroke-width="1"/><line x1="733" y1="345" x2="641" y2="339" stroke="#8b5cf6" stroke-opacity="0.27" stroke-width="1"/><line x1="480" y1="311" x2="618" y2="183" stroke="#8b5cf6" stroke-opacity="0.14" stroke-width="1"/><line x1="480" y1="311" x2="678" y2="276" stroke="#8b5cf6" stroke-opacity="0.12" stroke-width="1"/><line x1="480" y1="311" x2="708" y2="253" stroke="#8b5cf6" stroke-opacity="0.07" stroke-width="1"/><line x1="480" y1="311" x2="401" y2="169" stroke="#8b5cf6" stroke-opacity="0.17" stroke-width="1"/><line x1="480" y1="311" x2="641" y2="339" stroke="#8b5cf6" stroke-opacity="0.17" stroke-width="1"/><line x1="480" y1="311" x2="484" y2="223" stroke="#8b5cf6" stroke-opacity="0.28" stroke-width="1"/><line x1="480" y1="311" x2="580" y2="102" stroke="#8b5cf6" stroke-opacity="0.08" stroke-width="1"/><line x1="149" y1="365" x2="40" y2="319" stroke="#8b5cf6" stroke-opacity="0.24" stroke-width="1"/><line x1="149" y1="365" x2="201" y2="313" stroke="#8b5cf6" stroke-opacity="0.30" stroke-width="1"/><line x1="618" y1="183" x2="678" y2="276" stroke="#8b5cf6" stroke-opacity="0.25" stroke-width="1"/><line x1="618" y1="183" x2="749" y2="325" stroke="#8b5cf6" stroke-opacity="0.13" stroke-width="1"/><line x1="618" y1="183" x2="708" y2="253" stroke="#8b5cf6" stroke-opacity="0.24" stroke-width="1"/><line x1="618" y1="183" x2="401" y2="169" stroke="#8b5cf6" stroke-opacity="0.10" stroke-width="1"/><line x1="618" y1="183" x2="641" y2="339" stroke="#8b5cf6" stroke-opacity="0.18" stroke-width="1"/><line x1="618" y1="183" x2="484" y2="223" stroke="#8b5cf6" stroke-opacity="0.21" stroke-width="1"/><line x1="618" y1="183" x2="580" y2="102" stroke="#8b5cf6" stroke-opacity="0.28" stroke-width="1"/><line x1="678" y1="276" x2="749" y2="325" stroke="#8b5cf6" stroke-opacity="0.28" stroke-width="1"/><line x1="678" y1="276" x2="708" y2="253" stroke="#8b5cf6" stroke-opacity="0.35" stroke-width="1"/><line x1="678" y1="276" x2="641" y2="339" stroke="#8b5cf6" stroke-opacity="0.30" stroke-width="1"/><line x1="678" y1="276" x2="484" y2="223" stroke="#8b5cf6" stroke-opacity="0.12" stroke-width="1"/><line x1="678" y1="276" x2="580" y2="102" stroke="#8b5cf6" stroke-opacity="0.12" stroke-width="1"/><line x1="749" y1="325" x2="708" y2="253" stroke="#8b5cf6" stroke-opacity="0.29" stroke-width="1"/><line x1="749" y1="325" x2="641" y2="339" stroke="#8b5cf6" stroke-opacity="0.25" stroke-width="1"/><line x1="708" y1="253" x2="641" y2="339" stroke="#8b5cf6" stroke-opacity="0.25" stroke-width="1"/><line x1="708" y1="253" x2="484" y2="223" stroke="#8b5cf6" stroke-opacity="0.09" stroke-width="1"/><line x1="708" y1="253" x2="580" y2="102" stroke="#8b5cf6" stroke-opacity="0.12" stroke-width="1"/><line x1="40" y1="319" x2="201" y2="313" stroke="#8b5cf6" stroke-opacity="0.18" stroke-width="1"/><line x1="401" y1="169" x2="484" y2="223" stroke="#8b5cf6" stroke-opacity="0.26" stroke-width="1"/><line x1="401" y1="169" x2="580" y2="102" stroke="#8b5cf6" stroke-opacity="0.13" stroke-width="1"/><line x1="641" y1="339" x2="484" y2="223" stroke="#8b5cf6" stroke-opacity="0.13" stroke-width="1"/><line x1="484" y1="223" x2="580" y2="102" stroke="#8b5cf6" stroke-opacity="0.19" stroke-width="1"/><circle cx="40" cy="271" r="6.3" fill="#00d4b8" fill-opacity="0.9"/><circle cx="733" cy="345" r="6.4" fill="#8b5cf6" fill-opacity="0.9"/><circle cx="480" cy="311" r="6.3" fill="#8b5cf6" fill-opacity="0.9"/><circle cx="149" cy="365" r="6.0" fill="#00d4b8" fill-opacity="0.9"/><circle cx="618" cy="183" r="5.8" fill="#8b5cf6" fill-opacity="0.9"/><circle cx="678" cy="276" r="3.4" fill="#8b5cf6" fill-opacity="0.9"/><circle cx="749" cy="325" r="4.7" fill="#00d4b8" fill-opacity="0.9"/><circle cx="708" cy="253" r="3.4" fill="#8b5cf6" fill-opacity="0.9"/><circle cx="40" cy="319" r="3.8" fill="#8b5cf6" fill-opacity="0.9"/><circle cx="401" cy="169" r="3.5" fill="#00d4b8" fill-opacity="0.9"/><circle cx="641" cy="339" r="4.6" fill="#8b5cf6" fill-opacity="0.9"/><circle cx="484" cy="223" r="4.1" fill="#8b5cf6" fill-opacity="0.9"/><circle cx="201" cy="313" r="6.5" fill="#00d4b8" fill-opacity="0.9"/><circle cx="580" cy="102" r="6.1" fill="#8b5cf6" fill-opacity="0.9"/><rect width="800" height="400" fill="url(#fade)" style="mix-blend-mode:multiply"/></svg>